<svg xmlns="http://www.w3.org/2000/svg" version="1.1" xmlns:xlink="http://www.w3.org/1999/xlink" width="64" height="64"><svg xmlns="http://www.w3.org/2000/svg" version="1.1" xmlns:xlink="http://www.w3.org/1999/xlink" width="64" height="64"><svg xmlns="http://www.w3.org/2000/svg" viewBox="0 0 64 64">
  <!-- Фон -->
  <circle cx="32" cy="32" r="30" fill="#6B4EFF"></circle>

  <!-- Уши овчарки -->
  <polygon points="17,12 30,2 32,22" fill="#FFFFFF"></polygon>
  <polygon points="47,12 34,2 32,22" fill="#FFFFFF"></polygon>

  <!-- Голова (увеличена и сдвинута вниз) -->
  <path d="M16 22
           Q32 10 48 22
           L44 50
           Q32 56 20 50 Z" fill="#FFFFFF"></path>

  <!-- Маска -->
  <path d="M23 28
           Q32 32 41 28
           L39 46
           Q32 50 25 46 Z" fill="#2B1E4A"></path>

  <!-- Глаза -->
  <circle cx="27" cy="33" r="2.5" fill="#FFFFFF"></circle>
  <circle cx="37" cy="33" r="2.5" fill="#FFFFFF"></circle>

  <!-- Зрачки -->
  <circle cx="27.8" cy="34" r="1.2" fill="#1E1E2E"></circle>
  <circle cx="37.8" cy="34" r="1.2" fill="#1E1E2E"></circle>

  <!-- Морда (явно больше) -->
  <ellipse cx="32" cy="45" rx="7.6" ry="5.8" fill="#F0F0F0"></ellipse>

  <!-- Нос -->
  <circle cx="32" cy="43.2" r="2.8" fill="#1E1E2E"></circle>
</svg></svg><style>@media (prefers-color-scheme: light) { :root { filter: none; } }
@media (prefers-color-scheme: dark) { :root { filter: none; } }
</style></svg>